<svg width="56" height="56" viewBox="0 0 56 56" fill="none" xmlns="http://www.w3.org/2000/svg">
<g id="Icon">
<path id="Vector" fill-rule="evenodd" clip-rule="evenodd" d="M5.60078 5.6001C4.05438 5.6001 2.80078 6.8537 2.80078 8.4001V30.8001C2.80078 32.3465 4.05438 33.6001 5.60078 33.6001H42.0008C43.5472 33.6001 44.8008 32.3465 44.8008 30.8001V8.4001C44.8008 6.8537 43.5472 5.6001 42.0008 5.6001H5.60078ZM32.2004 33.6002H15.4004C17.2368 33.6002 20.2776 36.009 22.1531 37.667C23.1046 38.5082 24.5442 38.5644 25.5356 37.7706C27.6077 36.1114 30.9504 33.6002 32.2004 33.6002Z" fill="#6B7CFF"/>
<path id="Vector_2" fill-rule="evenodd" clip-rule="evenodd" d="M13.5094 22.4001L14.1716 20.4597H18.0678L18.7146 22.4001H20.9476L16.9436 11.4353H15.265L11.2764 22.4001H13.5094ZM17.4983 18.6578H14.7725L16.1585 14.6692L17.4983 18.6578ZM36.3988 12.6001H23.7988V14.0001H36.3988V12.6001ZM36.3988 19.6001H23.7988V21.0001H36.3988V19.6001ZM11.1992 26.6001H36.3992V28.0001H11.1992V26.6001Z" fill="white"/>
<path id="Vector_3" fill-rule="evenodd" clip-rule="evenodd" d="M19.5996 38.3958C20.5331 39.0771 21.4292 39.8277 22.1521 40.4668C23.1036 41.308 24.5432 41.3642 25.5346 40.5704C27.5992 38.9172 30.9254 36.418 32.1858 36.4001H44.7998C46.3462 36.4001 47.5998 35.1465 47.5998 33.6001V23.8H50.9596C52.1967 23.8 53.1996 24.8029 53.1996 26.04V44.2927C53.1996 45.5298 52.1967 46.5327 50.9596 46.5327H21.8396C20.6025 46.5327 19.5996 45.5298 19.5996 44.2927V38.3958ZM29.6797 46.5328H43.1197C42.1221 46.5328 39.4587 48.5616 37.8002 49.9087C37.003 50.5561 35.8362 50.5109 35.0715 49.8253C33.5703 48.4796 31.1454 46.5328 29.6797 46.5328Z" fill="#6B7CFF"/>
</g>
</svg>
