<svg width="56" height="56" viewBox="0 0 56 56" fill="none" xmlns="http://www.w3.org/2000/svg">
<g id="Icon">
<g id="Vector">
<path id="Vector_2" fill-rule="evenodd" clip-rule="evenodd" d="M33.7989 21.2771V5.38435C33.3481 5.23222 32.8861 5.09315 32.4232 4.96435C30.5789 4.47155 28.6376 4.19995 26.6309 4.19995C25.7732 4.19995 24.9304 4.25315 24.0988 4.34928C22.0651 4.57888 20.1153 5.08662 18.2813 5.82115C18.2813 5.82115 33.3929 20.7227 33.7989 21.2771ZM45.9698 15.2954C46.2096 15.7107 46.4355 16.1335 46.6474 16.5563L35.3652 27.7946C35.4782 27.1198 35.3652 5.93873 35.3652 5.93873C37.1824 6.70593 38.9175 7.727 40.5219 8.9954C41.1771 9.51247 41.8127 10.0715 42.4184 10.6745C43.8362 12.0838 45.0122 13.6453 45.9698 15.2954ZM27.9007 17.8341L16.6214 6.59401C16.1902 6.80867 15.7665 7.03361 15.3539 7.27254C13.6926 8.22361 12.1274 9.39867 10.7134 10.8071C10.1021 11.4128 9.54673 12.0484 9.02873 12.698C7.75473 14.2959 6.73086 16.0272 5.959 17.8379C5.959 17.8379 27.2203 17.7259 27.9007 17.8341ZM21.3371 19.432H5.38455C5.23055 19.8781 5.09429 20.3382 4.96735 20.8012C4.46989 22.6408 4.19922 24.5737 4.19922 26.572C4.19922 27.426 4.25242 28.2669 4.34949 29.0938C4.57909 31.1229 5.08682 33.0652 5.82882 34.887C5.82882 34.887 20.779 19.8296 21.3371 19.432ZM6.53614 36.5316L17.8117 25.2915C17.7034 25.9655 17.8164 46.8111 17.8183 47.1488L17.8183 47.1494L17.8183 47.1499L17.8183 47.1502L17.8183 47.153C15.9973 46.3867 14.266 45.3703 12.6616 44.0991C12.0064 43.5783 11.3699 43.0239 10.7651 42.42C9.34641 41.0098 8.16668 39.4483 7.21375 37.7954C6.97574 37.3791 6.74521 36.9619 6.53614 36.5316ZM38.5786 35.485C35.819 37.3317 33.9258 40.3722 33.6378 43.8678L25.1885 35.4499C25.5751 35.5145 32.5853 35.5052 38.5786 35.485ZM42.7983 33.7781H31.8584C32.4175 33.3759 47.3704 18.3193 47.3704 18.3193C48.1115 20.144 48.6155 22.0881 48.8479 24.1144C48.944 24.9423 48.9991 25.7841 48.9991 26.6391C48.9991 28.6383 48.7265 30.5656 48.2263 32.4071C48.1012 32.8681 47.9621 33.3283 47.8109 33.7781H46.8009C46.1516 33.661 45.4827 33.5999 44.7996 33.5999C44.1165 33.5999 43.4477 33.661 42.7983 33.7781ZM33.6823 46.1673C33.7471 46.7001 33.8494 47.2213 33.9863 47.7282C32.4282 48.2772 30.7927 48.6575 29.0949 48.8497C28.267 48.9467 27.4224 48.9999 26.5674 48.9999C24.5608 48.9999 22.6222 48.7311 20.7752 48.2299C20.3132 48.1058 19.853 47.9677 19.4004 47.8146V31.9199C19.7322 32.3819 30.0741 42.6036 33.6823 46.1673Z" fill="#6B7CFF"/>
</g>
<g id="Vector_3">
<circle id="&#230;&#164;&#173;&#229;&#156;&#134;&#229;&#189;&#162;" cx="44.8004" cy="44.7999" r="8.4" fill="#6B7CFF"/>
<path id="&#229;&#189;&#162;&#231;&#138;&#182;&#231;&#187;&#147;&#229;&#144;&#136;" fill-rule="evenodd" clip-rule="evenodd" d="M49.1525 42.1627L48.1625 41.1727L43.2126 46.1225L40.7376 43.6475L39.7477 44.6375L43.2125 48.1023L43.2126 48.1022L43.2127 48.1023L49.1525 42.1627Z" fill="#FAFBFF"/>
</g>
</g>
</svg>
