<svg width="48" height="48" viewBox="0 0 48 48" fill="none" xmlns="http://www.w3.org/2000/svg">
<g id="Icon 3" clip-path="url(#clip0_13_332)">
<path id="Vector" d="M24.0015 0C13.882 0 5.64844 8.23352 5.64844 18.353V35.2939C5.64844 37.6296 7.54834 39.5295 9.88367 39.5295C12.2194 39.5295 14.1193 37.6296 14.1193 35.2939V21.1765C14.1193 18.8412 12.2194 16.9413 9.88367 16.9413C9.40833 16.9413 8.95862 17.0376 8.53125 17.1826C9.13367 9.16589 15.8346 2.82349 24.0015 2.82349C32.1639 2.82349 38.863 9.16003 39.4709 17.1713C39.0461 17.0259 38.5939 16.9413 38.1193 16.9413C35.7836 16.9413 33.8837 18.8412 33.8837 21.1765V35.2939C33.8837 37.6296 35.7836 39.5295 38.1193 39.5295C38.6166 39.5295 39.0872 39.4277 39.531 39.2695V40.9413C39.531 41.7202 38.8967 42.353 38.1193 42.353H27.9767C27.3918 40.7131 25.8395 39.5295 24.0015 39.5295C21.6661 39.5295 19.7662 41.4294 19.7662 43.7648C19.7662 46.1001 21.6661 48 24.0015 48C25.8395 48 27.3918 46.816 27.9767 45.1765H38.1193C40.4546 45.1765 42.3545 43.2766 42.3545 40.9413C42.3545 32.4496 42.3545 26.8539 42.3545 18.353C42.3545 8.23352 34.121 0 24.0015 0V0Z" fill="#6B7CFF"/>
<path id="Vector_2" d="M45.1758 20.0248V36.4457C46.8153 35.8612 47.9993 34.3088 47.9993 32.4705V24C47.9993 22.162 46.8153 20.6096 45.1758 20.0248Z" fill="#6B7CFF"/>
<path id="Vector_3" d="M0 24V32.4705C0 34.3088 1.18396 35.8612 2.82349 36.4457V20.0248C1.18396 20.6096 0 22.162 0 24Z" fill="#6B7CFF"/>
</g>
<defs>
<clipPath id="clip0_13_332">
<rect width="48" height="48" fill="white"/>
</clipPath>
</defs>
</svg>
