<svg width="166" height="40" viewBox="0 0 166 40" fill="none" xmlns="http://www.w3.org/2000/svg">
<g id="Logo 3">
<path id="Vector" d="M48.707 11.6835H52.8243V28.7562H48.707V11.6835ZM54.4576 22.3099C54.4576 18.0875 56.9828 15.5682 60.8806 15.5682C64.7784 15.5682 67.3036 18.0875 67.3036 22.3099C67.3036 26.5324 64.8332 29.0658 60.8806 29.0658C56.9279 29.0658 54.4576 26.6027 54.4576 22.3099ZM63.1726 22.3099C63.1726 19.9876 62.2804 18.6224 60.8806 18.6224C59.4807 18.6224 58.6023 20.0298 58.6023 22.3099C58.6023 24.59 59.4669 25.9694 60.8806 25.9694C62.2942 25.9694 63.1726 24.6745 63.1726 22.324V22.3099ZM68.8545 29.5866H72.8071C72.9952 30.0152 73.3133 30.3701 73.7139 30.5983C74.1145 30.8265 74.5763 30.9159 75.0305 30.8533C76.5951 30.8533 77.4186 29.9807 77.4186 28.7139V26.3494H77.3362C77.0082 27.0742 76.4758 27.6814 75.808 28.0928C75.1401 28.5043 74.3674 28.701 73.5894 28.6577C70.5838 28.6577 68.5937 26.3072 68.5937 22.2677C68.5937 18.2283 70.4877 15.6807 73.6444 15.6807C74.4466 15.6485 75.2394 15.8685 75.9165 16.3112C76.5934 16.7539 77.1224 17.3983 77.4322 18.1578V15.8074H81.5496V28.6154C81.5496 31.6978 78.9007 33.6119 74.9894 33.6119C71.3524 33.6119 69.0878 31.937 68.8545 29.6007V29.5866ZM77.4322 22.2958C77.4322 20.2409 76.5127 18.9461 75.0579 18.9461C73.6032 18.9461 72.7111 20.2268 72.7111 22.2958C72.7111 24.3648 73.5894 25.533 75.0579 25.533C76.5264 25.533 77.4322 24.393 77.4322 22.3099V22.2958ZM83.1005 22.2958C83.1005 18.0734 85.6257 15.554 89.5235 15.554C93.4212 15.554 95.9603 18.0734 95.9603 22.2958C95.9603 26.5183 93.4899 29.0517 89.5235 29.0517C85.5572 29.0517 83.1005 26.6027 83.1005 22.3099V22.2958ZM91.8155 22.2958C91.8155 19.9735 90.9234 18.6083 89.5235 18.6083C88.1237 18.6083 87.3139 20.0298 87.3139 22.324C87.3139 24.6182 88.1785 25.9835 89.5784 25.9835C90.9783 25.9835 91.8155 24.6745 91.8155 22.324V22.2958ZM97.5248 12.739C97.5141 12.3128 97.6269 11.8928 97.8492 11.5324C98.0714 11.1719 98.3931 10.8872 98.7732 10.7144C99.1534 10.5417 99.5751 10.4885 99.9848 10.5618C100.394 10.6351 100.774 10.8314 101.074 11.1259C101.375 11.4205 101.584 11.8 101.674 12.2164C101.764 12.6326 101.732 13.067 101.581 13.4645C101.43 13.8618 101.167 14.2044 100.827 14.4486C100.486 14.6928 100.082 14.8277 99.6658 14.8363C99.3902 14.8556 99.1137 14.8164 98.8536 14.7209C98.5935 14.6256 98.3554 14.4759 98.1544 14.2817C97.9533 14.0874 97.7936 13.8526 97.6853 13.5919C97.5769 13.3313 97.5223 13.0505 97.5248 12.7673V12.739ZM97.5248 15.8355H101.642V28.7562H97.5248V15.8355ZM116.589 22.2958C116.589 26.5183 114.763 28.9251 111.634 28.9251C110.832 28.9779 110.032 28.7767 109.346 28.3488C108.658 27.9209 108.115 27.2868 107.791 26.5324H107.708V32.8942H103.591V15.8074H107.708V18.1156H107.791C108.1 17.3487 108.632 16.6982 109.315 16.2524C109.998 15.8067 110.798 15.5874 111.606 15.6244C114.763 15.6807 116.643 18.1016 116.643 22.324L116.589 22.2958ZM112.471 22.2958C112.471 20.2409 111.551 18.9321 110.11 18.9321C108.669 18.9321 107.75 20.255 107.736 22.2958C107.722 24.3367 108.669 25.6457 110.11 25.6457C111.551 25.6457 112.471 24.3648 112.471 22.324V22.2958ZM123.656 15.5399C127.073 15.5399 129.146 17.2008 129.242 19.8609H125.495C125.495 18.946 124.754 18.3691 123.615 18.3691C122.475 18.3691 121.968 18.8194 121.968 19.4809C121.968 20.1424 122.421 20.3535 123.341 20.5506L125.975 21.0995C128.488 21.6484 129.557 22.6899 129.557 24.6464C129.557 27.3206 127.183 29.0377 123.684 29.0377C120.184 29.0377 117.892 27.3206 117.713 24.6886H121.679C121.804 25.6457 122.545 26.2086 123.753 26.2086C124.96 26.2086 125.509 25.8005 125.509 25.1249C125.509 24.4493 125.125 24.3086 124.137 24.0974L121.763 23.5767C119.305 23.0559 118.015 21.7188 118.015 19.7484C118.043 17.2148 120.253 15.5682 123.656 15.5682V15.5399ZM143.296 28.7281H139.329V26.3213H139.247C139.029 27.1293 138.548 27.8366 137.884 28.3256C137.22 28.8146 136.413 29.0559 135.597 29.0095C134.97 29.046 134.345 28.9444 133.761 28.7115C133.177 28.4785 132.648 28.1198 132.211 27.6595C131.775 27.1992 131.439 26.6479 131.227 26.0432C131.015 25.4384 130.933 24.7941 130.985 24.1537V15.8074H135.102V23.1826C135.102 24.7167 135.871 25.533 137.148 25.533C137.447 25.5337 137.742 25.4687 138.015 25.3424C138.289 25.2162 138.532 25.0316 138.729 24.8009C138.927 24.5704 139.074 24.2992 139.16 24.0055C139.248 23.7118 139.273 23.4024 139.234 23.0982V15.8074H143.351L143.296 28.7281ZM145.286 15.8074H149.266V18.2986H149.348C149.567 17.5013 150.037 16.8007 150.685 16.3066C151.333 15.8125 152.123 15.5528 152.93 15.5682C153.752 15.5007 154.568 15.7528 155.217 16.2744C155.865 16.7959 156.298 17.5488 156.43 18.3831H156.513C156.761 17.5399 157.277 16.8057 157.978 16.296C158.679 15.7864 159.525 15.5303 160.383 15.5682C160.942 15.5488 161.501 15.6506 162.02 15.8667C162.539 16.0828 163.007 16.4086 163.395 16.8227C163.784 17.2369 164.083 17.7303 164.274 18.2706C164.464 18.8111 164.541 19.3864 164.5 19.9595V28.7562H160.383V21.0854C160.383 19.6779 159.765 19.0305 158.613 19.0305C158.355 19.0283 158.1 19.0826 157.866 19.1898C157.631 19.2972 157.421 19.4547 157.251 19.6522C157.08 19.8496 156.954 20.0823 156.878 20.3344C156.802 20.5864 156.781 20.8522 156.814 21.1136V28.7562H152.903V21.0292C152.903 19.7343 152.286 19.0305 151.16 19.0305C150.9 19.0306 150.643 19.0873 150.406 19.1966C150.169 19.306 149.957 19.4658 149.784 19.6653C149.612 19.8648 149.483 20.0995 149.405 20.354C149.328 20.6085 149.304 20.877 149.334 21.1417V28.7562H145.217L145.286 15.8074Z" fill="#1D2130"/>
<path id="Vector_2" d="M37.1919 12.4578C36.4934 10.8201 35.569 9.29375 34.447 7.92578C32.7883 5.84319 30.7185 4.14444 28.3735 2.94135C26.0285 1.73826 23.4617 1.05809 20.842 0.945621C18.2222 0.833152 15.609 1.29092 13.1741 2.28881C10.7393 3.28671 8.53821 4.80209 6.71564 6.73524C4.89305 8.66837 3.49035 10.9754 2.59984 13.5046C1.70933 16.0337 1.3512 18.7276 1.54902 21.4089C1.74685 24.0901 2.49615 26.6981 3.7476 29.061C4.99904 31.424 6.72427 33.4884 8.80972 35.1182C10.1479 36.1849 11.6265 37.0521 13.2016 37.6939C15.4098 38.622 17.7733 39.1 20.1598 39.1014C25.0861 39.0902 29.8071 37.0765 33.2879 33.5015C36.7687 29.9266 38.7254 25.0821 38.729 20.03C38.7327 17.4241 38.2092 14.8458 37.1919 12.4578ZM20.1461 4.81525C22.2893 4.81501 24.4065 5.29539 26.3496 6.22272C25.8758 6.43268 25.3776 6.57931 24.8673 6.65905C23.1883 6.9083 21.6328 7.70772 20.4332 8.93799C19.2335 10.1683 18.454 11.7634 18.2109 13.4854C18.1043 14.451 17.676 15.3494 16.9984 16.0289C16.3208 16.7084 15.4355 17.1274 14.4916 17.2151C12.8126 17.4644 11.2572 18.2638 10.0575 19.494C8.85787 20.7244 8.07834 22.3195 7.83529 24.0414C7.753 24.9596 7.37098 25.8225 6.75106 26.4904C5.68145 24.1727 5.20095 21.6151 5.35428 19.0557C5.50761 16.4964 6.28978 14.0184 7.62801 11.8522C8.96623 9.68625 10.817 7.90258 13.0081 6.66728C15.1993 5.43198 17.6594 4.78518 20.1598 4.7871L20.1461 4.81525ZM8.79601 29.8825C8.96069 29.7276 9.12539 29.5868 9.29008 29.4179C10.5111 28.2039 11.2948 26.6014 11.5134 24.8718C11.6021 23.8996 12.0254 22.9915 12.7075 22.3101C13.3638 21.6095 14.2473 21.179 15.1916 21.0998C16.8707 20.8505 18.426 20.051 19.6257 18.8208C20.8253 17.5906 21.6049 15.9954 21.8479 14.2735C21.9073 13.2566 22.3329 12.2986 23.0419 11.5852C23.7145 10.8982 24.6065 10.4833 25.5536 10.417C27.0961 10.1994 28.5347 9.49611 29.6709 8.40431C30.9646 9.50507 32.0608 10.8293 32.9099 12.3171C32.8577 12.3894 32.7978 12.4555 32.7314 12.5141C32.0763 13.221 31.194 13.6609 30.2473 13.7527C28.5665 13.9976 27.0088 14.7957 25.8083 16.0267C24.6079 17.2578 23.8297 18.8554 23.5909 20.579C23.4942 21.5479 23.0738 22.4528 22.401 23.1402C21.7282 23.8277 20.8442 24.2555 19.8991 24.351C18.2151 24.5984 16.6539 25.3962 15.4473 26.626C14.2407 27.8558 13.4531 29.4519 13.2016 31.1772C13.1277 31.8651 12.8973 32.5257 12.5291 33.1056C11.1209 32.2481 9.85976 31.1592 8.79601 29.8825ZM20.1461 35.3152C18.7534 35.3168 17.3675 35.1178 16.0288 34.7241C16.4867 33.8487 16.7844 32.8946 16.9071 31.9091C17.0034 30.9424 17.4217 30.0392 18.0918 29.352C18.7619 28.6649 19.6425 28.2358 20.5853 28.1371C22.2668 27.8907 23.8254 27.0925 25.0277 25.862C26.2301 24.6315 27.0116 23.0348 27.2554 21.3109C27.3515 20.3441 27.77 19.4409 28.4401 18.7538C29.1101 18.0666 29.9908 17.6375 30.9336 17.5388C32.199 17.37 33.405 16.8869 34.447 16.1314C35.0256 18.3804 35.094 20.7355 34.6474 23.0158C34.2006 25.2962 33.2504 27.4414 31.8698 29.2867C30.4891 31.132 28.7145 32.6286 26.6823 33.6614C24.6501 34.6941 22.4142 35.2359 20.1461 35.2449V35.3152Z" fill="#1D2130"/>
</g>
</svg>
