<svg width="166" height="40" viewBox="0 0 166 40" fill="none" xmlns="http://www.w3.org/2000/svg">
<g id="Logo 5" clip-path="url(#clip0_13_252)">
<path id="Vector" d="M47.6113 12.3745H51.785V29.7087H47.6113V12.3745ZM53.4493 23.1883C53.4493 18.8948 56.0496 16.3213 59.9502 16.3213C63.8509 16.3213 66.4513 18.8948 66.4513 23.1883C66.4513 27.4818 63.9419 30.082 59.9502 30.082C55.9587 30.082 53.4493 27.5752 53.4493 23.1883ZM62.3167 23.1883C62.3167 20.8282 61.4195 19.4415 59.9893 19.4415C58.559 19.4415 57.6749 20.7749 57.6749 23.1883C57.6749 25.6017 58.559 26.9218 59.9893 26.9218C61.4195 26.9218 62.3426 25.6018 62.3426 23.2016L62.3167 23.1883ZM68.1156 30.602H72.1462C72.3297 31.0471 72.6502 31.4182 73.0587 31.659C73.4672 31.8998 73.9413 31.9969 74.4087 31.9354C76.0079 31.9354 76.84 31.0554 76.84 29.7487V27.3486H76.853C76.5086 28.0959 75.9516 28.7188 75.2554 29.1353C74.5592 29.5518 73.7563 29.7423 72.9524 29.6819C69.8969 29.6819 67.8686 27.2952 67.8686 23.1883C67.8686 19.0814 69.8059 16.5213 73.0694 16.5213C73.8939 16.476 74.7118 16.6941 75.4103 17.1455C76.1089 17.5969 76.6538 18.2593 76.97 19.0414H76.853V16.628H80.9877V29.6153C80.9877 32.7488 78.2833 34.7089 74.3046 34.7089C70.69 34.6955 68.3756 33.0021 68.1416 30.6154L68.1156 30.602ZM76.853 23.1883C76.853 21.0949 75.9169 19.7748 74.4346 19.7748C72.9524 19.7748 72.0422 21.1082 72.0422 23.1883C72.0422 25.2684 72.9394 26.4952 74.4346 26.4952C75.9299 26.4952 76.853 25.3617 76.853 23.1883ZM82.639 23.1883C82.639 18.8948 85.2394 16.3213 89.14 16.3213C93.0407 16.3213 95.641 18.8948 95.641 23.1883C95.641 27.4818 93.1186 30.082 89.14 30.082C85.1614 30.082 82.6649 27.5752 82.6649 23.1883H82.639ZM91.5064 23.1883C91.5064 20.8282 90.5962 19.4415 89.179 19.4415C87.7617 19.4415 86.8646 20.7749 86.8646 23.1883C86.8646 25.6017 87.7487 26.9218 89.179 26.9218C90.6093 26.9218 91.5324 25.6018 91.5324 23.2016L91.5064 23.1883ZM97.3313 13.4678C97.3132 13.0318 97.4226 12.6002 97.6456 12.2286C97.8686 11.8569 98.195 11.5621 98.5826 11.3822C98.9703 11.2023 99.4016 11.1455 99.821 11.219C100.241 11.2926 100.629 11.4931 100.936 11.7949C101.244 12.0967 101.456 12.4858 101.546 12.9123C101.636 13.3389 101.599 13.7833 101.441 14.1883C101.283 14.5934 101.01 14.9406 100.657 15.1853C100.305 15.4299 99.8892 15.5609 99.4637 15.5613C99.1917 15.5683 98.9211 15.52 98.6675 15.419C98.4139 15.3179 98.1825 15.1662 97.9866 14.9728C97.7906 14.7792 97.634 14.5477 97.526 14.2917C97.418 14.0356 97.3606 13.7601 97.3574 13.4812L97.3313 13.4678ZM97.3313 16.6147H101.557V29.7619H97.3963L97.3313 16.6147ZM116.756 23.1883C116.756 27.4686 114.884 29.9487 111.699 29.9487C110.883 30.0002 110.072 29.7939 109.374 29.3575C108.676 28.9212 108.127 28.2758 107.798 27.5086H107.72V33.9889H103.546V16.6547H107.694V19.0014H107.772C108.089 18.2191 108.634 17.556 109.332 17.1027C110.03 16.6493 110.847 16.4277 111.672 16.468C114.949 16.4413 116.834 18.9081 116.834 23.2016L116.756 23.1883ZM112.505 23.1883C112.505 21.1082 111.555 19.7615 110.086 19.7615C108.617 19.7615 107.694 21.0949 107.681 23.1883C107.668 25.2817 108.617 26.6018 110.086 26.6018C111.555 26.6018 112.583 25.3617 112.583 23.2016L112.505 23.1883ZM123.881 16.3079C127.379 16.3079 129.551 18.0014 129.576 20.7215H125.767C125.767 19.7748 125 19.1881 123.856 19.1881C122.711 19.1881 122.165 19.6415 122.165 20.3215C122.165 21.0015 122.647 21.2149 123.609 21.4149L126.287 21.9749C128.888 22.535 129.928 23.6017 129.928 25.5885C129.928 28.2552 127.522 30.0687 123.947 30.0687C120.371 30.0687 118.043 28.3086 117.875 25.6285H121.918C122.035 26.6018 122.789 27.1752 124.012 27.1752C125.234 27.1752 125.806 26.7752 125.806 26.0684C125.806 25.3617 125.416 25.2417 124.414 25.0285L121.996 24.5083C119.487 23.9617 118.173 22.615 118.173 20.6015C118.252 17.988 120.436 16.3213 123.959 16.3213L123.881 16.3079ZM143.904 29.7487H139.861V27.2818H139.783C139.557 28.1047 139.064 28.8238 138.386 29.3207C137.708 29.8176 136.884 30.0626 136.052 30.0153C135.423 30.0363 134.798 29.9208 134.216 29.6763C133.634 29.4318 133.109 29.0639 132.676 28.5968C132.242 28.1296 131.91 27.5738 131.701 26.9657C131.491 26.3576 131.41 25.7111 131.462 25.0684V16.628H135.636V24.1483C135.636 25.6951 136.429 26.5352 137.729 26.5352C138.034 26.5328 138.335 26.4634 138.611 26.3315C138.888 26.1996 139.134 26.0085 139.333 25.7709C139.53 25.5332 139.677 25.2548 139.762 24.9541C139.846 24.6535 139.866 24.3378 139.822 24.0283V16.628H143.983L143.904 29.7487ZM145.92 16.6147H149.977V19.1481H150.068C150.292 18.3366 150.772 17.624 151.433 17.1222C152.094 16.6203 152.9 16.3575 153.721 16.3747C154.547 16.3011 155.37 16.5458 156.029 17.0613C156.688 17.5767 157.135 18.3255 157.284 19.1614H157.466C157.725 18.3211 158.249 17.5922 158.955 17.0882C159.66 16.5842 160.508 16.3334 161.367 16.3747C161.938 16.3523 162.506 16.4539 163.036 16.6728C163.566 16.8915 164.045 17.2226 164.441 17.6442C164.837 18.0659 165.143 18.5687 165.336 19.1197C165.531 19.6707 165.609 20.2574 165.567 20.8415V29.7619H161.367V21.9349C161.367 20.6015 160.755 19.8548 159.573 19.8548C159.31 19.8503 159.049 19.9042 158.81 20.0127C158.57 20.121 158.355 20.2814 158.18 20.4828C158.006 20.6841 157.877 20.9217 157.8 21.1793C157.724 21.4369 157.704 21.7082 157.739 21.9749V29.7619H153.76V21.8949C153.76 20.5615 153.123 19.8548 151.979 19.8548C151.714 19.8527 151.452 19.9087 151.209 20.0192C150.967 20.1296 150.75 20.2919 150.575 20.4953C150.398 20.6987 150.266 20.9382 150.188 21.198C150.11 21.4578 150.087 21.7318 150.12 22.0016V29.7619H145.947L145.92 16.6147Z" fill="#1D2130"/>
<path id="Vector_2" d="M39.3547 13.5079C39.3548 10.854 38.5733 8.26196 37.1126 6.07127C35.6519 3.88056 33.5802 2.19336 31.1686 1.23063C28.7571 0.267914 26.1182 0.0745687 23.5977 0.675921C21.0772 1.27728 18.7926 2.64529 17.043 4.60077H0.816406V39.7225H35.0769V23.3084C36.4216 22.0749 37.4977 20.5646 38.2348 18.8759C38.9718 17.1871 39.3534 15.3581 39.3547 13.5079ZM32.7626 13.5079C32.7652 14.7796 32.3998 16.0235 31.7127 17.0822C31.0257 18.1408 30.0478 18.9666 28.9029 19.4551C27.758 19.9437 26.4974 20.0728 25.2809 19.8263C24.0644 19.5799 22.9465 18.9688 22.0687 18.0705C21.1909 17.1722 20.5928 16.027 20.3499 14.78C20.1071 13.5329 20.2305 12.24 20.7043 11.0648C21.1783 9.88965 21.9815 8.8851 23.0125 8.1783C24.0433 7.47151 25.2555 7.09423 26.4956 7.09422C28.1554 7.09422 29.7475 7.76952 30.9224 8.97193C32.0973 10.1743 32.7591 11.8057 32.7626 13.5079ZM28.4848 32.9622H7.40847V11.3611H13.8315C13.7075 12.0698 13.6422 12.7879 13.6364 13.5079C13.6399 17.0043 14.9958 20.3565 17.4066 22.8288C19.8174 25.3011 23.0862 26.6917 26.4956 26.6952C27.1621 26.6916 27.8272 26.6337 28.4848 26.5219V32.9622Z" fill="#1D2130"/>
</g>
<defs>
<clipPath id="clip0_13_252">
<rect width="165.987" height="40" fill="white" transform="translate(0.0117188)"/>
</clipPath>
</defs>
</svg>
