<svg width="197" height="40" viewBox="0 0 197 40" fill="none" xmlns="http://www.w3.org/2000/svg">
<g id="Logo 1" clip-path="url(#clip0_13_282)">
<path id="Vector" d="M30.094 17.6035C29.5463 18.1718 29.1267 18.8575 28.8654 19.612C28.604 20.3665 28.5074 21.1711 28.582 21.9686L28.556 21.9418C28.6329 22.8804 28.5101 23.8249 28.1964 24.7097C27.8826 25.5944 27.3854 26.3978 26.7393 27.0639C26.0933 27.73 25.314 28.2427 24.4559 28.5662C23.5979 28.8898 22.6816 29.0162 21.7712 28.9371L21.7972 28.9639C20.7083 28.8594 19.6144 29.1037 18.6651 29.6635C17.7157 30.2234 16.9569 31.0717 16.4922 32.0924C16.0273 33.1132 15.8793 34.2569 16.0681 35.3677C16.2569 36.4784 16.7734 37.502 17.5471 38.2991C18.3209 39.096 19.3142 39.6277 20.3917 39.8213C21.4691 40.015 22.5783 39.8612 23.568 39.3812C24.5576 38.9011 25.3795 38.1179 25.9217 37.1386C26.4638 36.1592 26.6999 35.0313 26.5975 33.9086L26.625 33.9354C26.5481 32.9967 26.6709 32.0521 26.9847 31.1674C27.2984 30.2827 27.7958 29.4793 28.4418 28.8133C29.0879 28.1472 29.867 27.6345 30.7251 27.3109C31.5832 26.9874 32.4994 26.8608 33.4098 26.9401L33.3823 26.9133C34.2719 26.9958 35.1673 26.8454 35.9855 26.476C36.8037 26.1067 37.5183 25.5305 38.0629 24.8006C38.6075 24.0708 38.9647 23.2111 39.1013 22.3009C39.238 21.3909 39.1494 20.46 38.8441 19.5946C38.539 18.7292 38.0267 17.9572 37.355 17.3502C36.6832 16.7433 35.8738 16.3209 35.0017 16.1224C34.1295 15.9238 33.2228 15.9554 32.3656 16.2144C31.5085 16.4733 30.7286 16.9511 30.0983 17.6035H30.094Z" fill="#1D2130"/>
<path id="Vector_2" d="M19.4313 25.4503L19.4038 25.4235C20.1776 25.5038 20.959 25.4059 21.6916 25.1368C22.4242 24.8677 23.0896 24.434 23.6397 23.8672C24.1899 23.3005 24.611 22.6148 24.8725 21.8597C25.1341 21.1046 25.2297 20.299 25.1523 19.5011L25.1798 19.5279C25.1029 18.5893 25.2257 17.6446 25.5394 16.7601C25.8532 15.8753 26.3504 15.0719 26.9965 14.4058C27.6425 13.7397 28.4218 13.227 29.2799 12.9035C30.1379 12.5799 31.0542 12.4533 31.9646 12.5326L31.9371 12.5058C33.0261 12.6112 34.1203 12.3677 35.0702 11.8085C36.0202 11.2493 36.7796 10.4015 37.2451 9.38086C37.7105 8.36023 37.8593 7.21641 37.6711 6.10539C37.4829 4.99438 36.9667 3.9703 36.1933 3.17279C35.4197 2.3753 34.4266 1.84323 33.349 1.64915C32.2714 1.45508 31.1619 1.60844 30.1721 2.08834C29.1821 2.56823 28.3599 3.35129 27.8175 4.3307C27.275 5.31011 27.0389 6.43819 27.1412 7.56109L27.1152 7.53277C27.1922 8.47148 27.0697 9.41623 26.7559 10.301C26.4423 11.1858 25.9449 11.9893 25.2988 12.6555C24.6529 13.3217 23.8735 13.8344 23.0153 14.1578C22.1571 14.4812 21.2408 14.6076 20.3304 14.5281L20.3563 14.5564C19.5826 14.4761 18.8011 14.5739 18.0686 14.8431C17.336 15.1122 16.6705 15.5458 16.1204 16.1126C15.5704 16.6793 15.1492 17.3651 14.8876 18.1202C14.6261 18.8753 14.5305 19.6809 14.6079 20.4788L14.5819 20.4519C14.6585 21.3905 14.5355 22.335 14.2216 23.2196C13.9077 24.1042 13.4105 24.9075 12.7645 25.5735C12.1185 26.2396 11.3394 26.7523 10.4815 27.0758C9.62351 27.3995 8.70742 27.5263 7.79708 27.4472L7.82309 27.474C6.73399 27.3686 5.63986 27.6122 4.68992 28.1713C3.73998 28.7306 2.98049 29.5784 2.51504 30.599C2.04959 31.6197 1.90083 32.7635 2.08907 33.8745C2.2773 34.9855 2.79337 36.0096 3.56687 36.8071C4.34036 37.6046 5.33364 38.1366 6.41121 38.3308C7.48878 38.5248 8.59819 38.3715 9.58811 37.8916C10.578 37.4117 11.4003 36.6286 11.9426 35.6492C12.4851 34.6698 12.7212 33.5417 12.619 32.4188L12.6465 32.4456C12.5696 31.507 12.6924 30.5623 13.0062 29.6777C13.3199 28.793 13.8173 27.9896 14.4633 27.3235C15.1094 26.6573 15.8885 26.1446 16.7466 25.8211C17.6046 25.4976 18.5209 25.3711 19.4313 25.4503Z" fill="#1D2130"/>
<path id="Vector_3" d="M9.74232 22.4595C10.2902 21.8914 10.7096 21.2056 10.9707 20.451C11.2318 19.6964 11.3281 18.8918 11.2528 18.0944L11.2803 18.1213C11.2034 17.1823 11.3262 16.2375 11.6401 15.3525C11.9541 14.4676 12.4516 13.6641 13.098 12.9978C13.7443 12.3317 14.5239 11.8191 15.3823 11.4958C16.2408 11.1725 17.1573 11.0463 18.0679 11.126L18.0405 11.0991C19.1292 11.2043 20.2229 10.9607 21.1724 10.4015C22.1219 9.84224 22.881 8.99469 23.3462 7.97437C23.8114 6.95405 23.9599 5.81064 23.7717 4.70004C23.5835 3.58945 23.0676 2.56576 22.2944 1.76855C21.5212 0.971347 20.5283 0.439442 19.4511 0.245372C18.3739 0.0513041 17.265 0.20452 16.2753 0.684124C15.2857 1.16373 14.4637 1.94637 13.9212 2.92534C13.3789 3.90429 13.1426 5.03191 13.2445 6.15442L13.2186 6.1276C13.2954 7.06624 13.1726 8.01088 12.8589 8.89556C12.5451 9.78024 12.0479 10.5837 11.4018 11.2497C10.7557 11.9158 9.97649 12.4285 9.11842 12.7521C8.26037 13.0756 7.34416 13.2022 6.43376 13.1229L6.45978 13.1497C5.57022 13.0675 4.67493 13.2181 3.85685 13.5876C3.03876 13.957 2.32437 14.5334 1.77987 15.2634C1.23536 15.9933 0.878358 16.853 0.741946 17.763C0.605533 18.6731 0.694122 19.604 0.999503 20.4693C1.30488 21.3345 1.81718 22.1064 2.48891 22.7133C3.16064 23.3202 3.97007 23.7424 4.84221 23.9409C5.71434 24.1394 6.62095 24.1076 7.47803 23.8487C8.33511 23.5897 9.11493 23.1118 9.74522 22.4595H9.74232Z" fill="#1D2130"/>
<path id="Vector_4" d="M54.5176 7.59521H58.8105V29.1341H54.5176V7.59521Z" fill="#1D2130"/>
<path id="Vector_5" d="M61.2424 21.7594C61.2363 20.2115 61.6761 18.6967 62.5057 17.4067C63.3354 16.1167 64.5178 15.1095 65.9031 14.513C67.2884 13.9163 68.8142 13.757 70.2874 14.0552C71.7605 14.3533 73.1148 15.0955 74.1784 16.1879C75.2422 17.2801 75.9675 18.6734 76.2626 20.1911C76.5577 21.7087 76.4093 23.2826 75.8362 24.7132C75.263 26.1439 74.291 27.367 73.0431 28.2275C71.7952 29.0881 70.3277 29.5475 68.8265 29.5475C67.8299 29.5593 66.8411 29.3661 65.9178 28.9792C64.9945 28.5924 64.1553 28.0197 63.4491 27.2945C62.743 26.5694 62.1842 25.7065 61.8052 24.756C61.4263 23.8057 61.235 22.787 61.2424 21.7594ZM72.1177 21.7594C72.0999 21.0923 71.8916 20.4453 71.5189 19.8994C71.1464 19.3537 70.626 18.9332 70.023 18.6906C69.4198 18.448 68.7608 18.3941 68.1281 18.5357C67.4955 18.6772 66.9173 19.0079 66.466 19.4863C66.0146 19.9647 65.7101 20.5698 65.5903 21.2257C65.4707 21.8817 65.5412 22.5594 65.7931 23.1743C66.045 23.7891 66.4671 24.3138 67.0067 24.6826C67.5461 25.0514 68.1792 25.2483 68.8265 25.2481C69.2698 25.2604 69.7108 25.1778 70.1216 25.0054C70.5325 24.8332 70.9042 24.575 71.2134 24.2472C71.5227 23.9194 71.7626 23.5292 71.9183 23.101C72.074 22.6728 72.1419 22.216 72.1177 21.7594Z" fill="#1D2130"/>
<path id="Vector_6" d="M93.5212 14.3817V28.3903C93.5212 33.347 89.7718 35.4423 85.966 35.4423C84.6259 35.5457 83.2843 35.2667 82.0879 34.6357C80.8917 34.0048 79.8869 33.0464 79.184 31.8656L82.8467 29.6824C83.1421 30.2978 83.6129 30.8057 84.1959 31.1377C84.7789 31.4698 85.4464 31.6104 86.109 31.5408C86.5326 31.6013 86.9639 31.5628 87.371 31.4282C87.7781 31.2937 88.1507 31.0664 88.4612 30.7634C88.7716 30.4603 89.0121 30.0891 89.1646 29.6774C89.3172 29.2656 89.378 28.8236 89.3425 28.3843V27.0357C88.8398 27.6698 88.2 28.1737 87.4743 28.5068C86.7486 28.8398 85.9572 28.9929 85.1638 28.9536C83.2758 28.8923 81.485 28.0758 80.1706 26.6771C78.8561 25.2786 78.1211 23.4074 78.1211 21.4598C78.1211 19.5123 78.8561 17.6411 80.1706 16.2424C81.485 14.8438 83.2758 14.0274 85.1638 13.966C85.9572 13.9268 86.7486 14.0798 87.4743 14.4129C88.2 14.746 88.8398 15.2498 89.3425 15.884V14.3788L93.5212 14.3817ZM89.344 21.4621C89.3728 20.7488 89.194 20.0429 88.8304 19.4353C88.4668 18.8276 87.9352 18.3461 87.304 18.0526C86.6728 17.7591 85.9708 17.6671 85.2884 17.7884C84.6061 17.9097 83.9746 18.2388 83.475 18.7333C82.9756 19.2278 82.6312 19.8651 82.486 20.5631C82.3409 21.2613 82.4016 21.9881 82.6605 22.6503C82.9194 23.3124 83.3645 23.8795 83.9387 24.2787C84.5129 24.6777 85.1897 24.8906 85.8822 24.8897C86.3331 24.9221 86.7858 24.8568 87.2109 24.698C87.636 24.5391 88.0241 24.2902 88.3502 23.9674C88.6763 23.6444 88.9332 23.2547 89.1044 22.8231C89.2755 22.3917 89.3571 21.9281 89.344 21.4621Z" fill="#1D2130"/>
<path id="Vector_7" d="M95.9514 21.7594C95.9454 20.2115 96.385 18.6967 97.2148 17.4067C98.0445 16.1167 99.2269 15.1095 100.612 14.513C101.997 13.9163 103.523 13.757 104.996 14.0552C106.47 14.3533 107.824 15.0955 108.888 16.1879C109.951 17.2801 110.677 18.6734 110.972 20.1911C111.267 21.7087 111.118 23.2826 110.545 24.7132C109.972 26.1439 109 27.367 107.752 28.2275C106.504 29.0881 105.037 29.5475 103.536 29.5475C102.539 29.5593 101.55 29.3661 100.627 28.9792C99.7036 28.5924 98.8643 28.0197 98.1582 27.2945C97.4521 26.5694 96.8933 25.7065 96.5143 24.756C96.1354 23.8057 95.944 22.787 95.9514 21.7594ZM106.827 21.7594C106.809 21.0923 106.601 20.4453 106.228 19.8994C105.855 19.3537 105.335 18.9332 104.732 18.6906C104.129 18.448 103.47 18.3941 102.837 18.5357C102.205 18.6772 101.626 19.0079 101.175 19.4863C100.724 19.9647 100.419 20.5698 100.299 21.2257C100.18 21.8817 100.25 22.5594 100.502 23.1743C100.754 23.7891 101.176 24.3138 101.716 24.6826C102.255 25.0514 102.888 25.2483 103.536 25.2481C103.979 25.2604 104.42 25.1778 104.831 25.0054C105.242 24.8332 105.613 24.575 105.922 24.2472C106.232 23.9194 106.472 23.5292 106.627 23.101C106.783 22.6728 106.851 22.216 106.827 21.7594Z" fill="#1D2130"/>
<path id="Vector_8" d="M113.121 10.4279C113.121 9.90265 113.272 9.3892 113.555 8.95248C113.838 8.51575 114.24 8.17537 114.711 7.97437C115.182 7.77337 115.7 7.72078 116.199 7.82325C116.699 7.92572 117.158 8.17865 117.518 8.55005C117.878 8.92145 118.124 9.39464 118.223 9.90979C118.322 10.4249 118.272 10.9589 118.076 11.4442C117.881 11.9295 117.551 12.3442 117.128 12.6359C116.704 12.9278 116.206 13.0836 115.696 13.0836C115.016 13.0765 114.365 12.7945 113.883 12.298C113.401 11.8015 113.128 11.13 113.121 10.4279ZM113.555 14.3816H117.849V29.1352H113.549L113.555 14.3816Z" fill="#1D2130"/>
<path id="Vector_9" d="M136.386 21.759C136.435 22.7341 136.298 23.7096 135.98 24.6295C135.663 25.5495 135.172 26.3958 134.536 27.1195C133.901 27.8433 133.132 28.4303 132.277 28.8469C131.42 29.2636 130.492 29.5015 129.546 29.5472C128.751 29.5919 127.955 29.4536 127.218 29.1422C126.481 28.8308 125.819 28.3542 125.283 27.7469V35.0359H120.99V14.3822H125.283V15.7681C125.821 15.1613 126.481 14.685 127.219 14.374C127.955 14.0628 128.751 13.9247 129.546 13.9694C130.492 14.0148 131.42 14.2527 132.277 14.6693C133.133 15.086 133.902 15.6732 134.537 16.3972C135.173 17.1212 135.664 17.9676 135.982 18.8878C136.299 19.808 136.436 20.7838 136.386 21.759ZM132.093 21.759C132.077 21.0686 131.862 20.3985 131.478 19.8327C131.094 19.267 130.556 18.8307 129.933 18.5785C129.309 18.3261 128.626 18.2692 127.972 18.4145C127.317 18.5599 126.718 18.9012 126.25 19.3956C125.783 19.8901 125.467 20.5159 125.342 21.1946C125.218 21.8733 125.29 22.5747 125.55 23.2112C125.811 23.8475 126.248 24.3907 126.805 24.7726C127.364 25.1545 128.019 25.3581 128.689 25.358C129.148 25.3792 129.608 25.2998 130.036 25.1252C130.464 24.9505 130.851 24.6846 131.173 24.3447C131.495 24.0049 131.742 23.5989 131.901 23.1533C132.059 22.7076 132.125 22.2326 132.093 21.759Z" fill="#1D2130"/>
<path id="Vector_10" d="M149.63 24.7082C149.63 28.1015 146.77 29.5472 143.68 29.5472C142.432 29.6638 141.178 29.3915 140.081 28.7655C138.984 28.1396 138.094 27.1888 137.527 26.036L141.246 23.8528C141.397 24.3856 141.72 24.8492 142.162 25.166C142.604 25.4827 143.137 25.6336 143.675 25.5934C144.704 25.5934 145.219 25.2686 145.219 24.6799C145.219 23.0555 138.179 23.9125 138.179 18.8082C138.179 15.5907 140.813 13.9693 143.789 13.9693C144.908 13.9328 146.015 14.2065 146.997 14.7616C147.978 15.3168 148.797 16.1332 149.368 17.1258L145.705 19.1614C145.545 18.7749 145.277 18.4459 144.936 18.2151C144.595 17.9842 144.197 17.8619 143.789 17.8634C143.045 17.8634 142.585 18.1614 142.585 18.6891C142.591 20.3715 149.63 19.2494 149.63 24.7082Z" fill="#1D2130"/>
<path id="Vector_11" d="M165.316 14.3823V29.136H161.022V27.7486C160.528 28.3608 159.899 28.8431 159.188 29.1561C158.477 29.469 157.704 29.6036 156.932 29.5488C154.041 29.5488 151.584 27.4251 151.584 23.4387V14.3823H155.877V22.7904C155.842 23.1419 155.879 23.497 155.991 23.8314C156.102 24.1657 156.281 24.4713 156.518 24.7266C156.755 24.9819 157.043 25.1809 157.362 25.3097C157.682 25.4387 158.024 25.4943 158.366 25.4729C159.94 25.4729 161.027 24.5296 161.027 22.4343V14.3868L165.316 14.3823Z" fill="#1D2130"/>
<path id="Vector_12" d="M189.93 20.0771V29.135H185.637V20.4602C185.637 18.9847 184.95 18.0415 183.577 18.0415C182.147 18.0415 181.344 19.0742 181.344 20.8149V29.135H177.053V20.4602C177.053 18.9847 176.366 18.0415 174.992 18.0415C173.56 18.0415 172.76 19.0742 172.76 20.8149V29.135H168.467V14.3813H172.76V15.7375C173.205 15.1358 173.789 14.6587 174.459 14.3497C175.129 14.0407 175.863 13.9097 176.595 13.9685C177.329 13.9315 178.061 14.0913 178.717 14.4324C179.374 14.7735 179.934 15.2843 180.343 15.9149C180.818 15.2551 181.448 14.7305 182.174 14.3902C182.9 14.0498 183.697 13.9047 184.492 13.9685C187.778 13.97 189.93 16.3887 189.93 20.0771Z" fill="#1D2130"/>
<path id="Vector_13" d="M193.561 14.2913C195.32 14.2913 196.747 12.8208 196.747 11.0067C196.747 9.19271 195.32 7.72217 193.561 7.72217C191.802 7.72217 190.375 9.19271 190.375 11.0067C190.375 12.8208 191.802 14.2913 193.561 14.2913Z" fill="#1D2130"/>
</g>
<defs>
<clipPath id="clip0_13_282">
<rect width="196.967" height="40" fill="white"/>
</clipPath>
</defs>
</svg>
