<svg width="188" height="40" viewBox="0 0 188 40" fill="none" xmlns="http://www.w3.org/2000/svg">
<g id="Logo 4" clip-path="url(#clip0_13_255)">
<path id="Vector" d="M61.1356 31.8655C60.1927 31.9177 59.26 31.6439 58.4881 31.0884C58.1656 30.8443 57.9061 30.5236 57.7321 30.1541C57.5582 29.7846 57.4748 29.3773 57.4895 28.9676V13.9603C57.4817 13.8967 57.4884 13.8322 57.5087 13.7716C57.5291 13.7111 57.5627 13.6562 57.6071 13.6109C57.6514 13.5656 57.7053 13.5313 57.7646 13.5104C57.8238 13.4896 57.887 13.4829 57.9492 13.4907H60.6125C60.9137 13.4907 61.0563 13.6527 61.0563 13.9603V27.802C61.0563 28.4172 61.3259 28.7248 61.8806 28.7248C62.1159 28.7347 62.3511 28.7074 62.5782 28.6439C62.8952 28.6439 63.0697 28.7409 63.0855 29.0324L63.3233 31.056C63.3347 31.115 63.3337 31.1759 63.3201 31.2344C63.3066 31.2929 63.2809 31.3478 63.2449 31.3954C63.2088 31.4429 63.1633 31.4821 63.1111 31.5101C63.059 31.5381 63.0016 31.5545 62.9428 31.558C62.3594 31.7547 61.7499 31.8585 61.1356 31.8655Z" fill="#1D2130"/>
<path id="Vector_2" d="M76.1173 30.134C74.7791 31.2631 73.0974 31.8808 71.3615 31.8808C69.6255 31.8808 67.9439 31.2631 66.6056 30.134C65.4294 28.9213 64.7695 27.2835 64.7695 25.5767C64.7695 23.8698 65.4294 22.232 66.6056 21.0194C67.9465 19.8962 69.6272 19.2822 71.3615 19.2822C73.0958 19.2822 74.7765 19.8962 76.1173 21.0194C77.2664 22.2433 77.9079 23.8731 77.9079 25.5687C77.9079 27.2642 77.2664 28.894 76.1173 30.1178V30.134ZM69.1104 27.9969C69.7314 28.5715 70.5394 28.8897 71.3774 28.8897C72.2152 28.8897 73.0233 28.5715 73.6443 27.9969C74.2063 27.3371 74.5159 26.4918 74.5159 25.6172C74.5159 24.7425 74.2063 23.8973 73.6443 23.2373C73.0233 22.6629 72.2152 22.3447 71.3774 22.3447C70.5394 22.3447 69.7314 22.6629 69.1104 23.2373C68.5483 23.8973 68.2388 24.7425 68.2388 25.6172C68.2388 26.4918 68.5483 27.3371 69.1104 27.9969Z" fill="#1D2130"/>
<path id="Vector_3" d="M92.5721 19.6903C92.8732 19.6903 93.0159 19.8522 93.0159 20.1598V31.7674C93.0436 32.5509 92.9 33.3308 92.5957 34.0505C92.2914 34.7703 91.8337 35.4116 91.2563 35.9281C89.9745 37.0443 88.326 37.6228 86.6431 37.547C85.123 37.6016 83.6232 37.1777 82.347 36.3328C81.8019 35.9673 81.3363 35.4913 80.9791 34.9343C80.6218 34.3774 80.3805 33.7513 80.2703 33.095C80.2703 32.7712 80.2703 32.6255 80.6983 32.6255H83.3616C83.4746 32.6295 83.5842 32.6667 83.677 32.7327C83.7698 32.7988 83.842 32.8909 83.8847 32.9979C84.0574 33.4896 84.4018 33.8989 84.8517 34.1473C85.4001 34.4362 86.0103 34.5808 86.6273 34.5682C86.9994 34.5891 87.3721 34.5339 87.7231 34.406C88.0743 34.2781 88.3969 34.0802 88.6723 33.8236C88.9238 33.555 89.1195 33.2374 89.2475 32.8895C89.3756 32.5417 89.4334 32.171 89.4173 31.7998V30.7799C88.4638 31.4962 87.3032 31.8665 86.12 31.8322C85.2918 31.863 84.4661 31.7225 83.6924 31.4193C82.9187 31.1161 82.2131 30.6563 81.6178 30.0676C80.4749 28.8601 79.8359 27.2464 79.8359 25.567C79.8359 23.8876 80.4749 22.2739 81.6178 21.0664C82.216 20.4829 82.9225 20.0276 83.6957 19.7273C84.469 19.427 85.2932 19.2878 86.12 19.318C87.3374 19.2851 88.5292 19.6794 89.4965 20.435V20.1759C89.4893 20.114 89.4957 20.051 89.5151 19.9918C89.5346 19.9326 89.5669 19.8785 89.6093 19.8336C89.6518 19.7886 89.7035 19.7539 89.7608 19.7319C89.8182 19.7099 89.8795 19.7012 89.9405 19.7065L92.5721 19.6903ZM86.4212 28.9505C86.8296 28.9634 87.2358 28.8846 87.6111 28.7196C87.9864 28.5545 88.3216 28.3073 88.593 27.9954C89.12 27.3003 89.406 26.4461 89.406 25.567C89.406 24.6879 89.12 23.8337 88.593 23.1387C88.3225 22.8309 87.9894 22.5874 87.6169 22.4252C87.2445 22.263 86.8417 22.186 86.437 22.1997C86.0239 22.1864 85.6128 22.265 85.2324 22.4299C84.8519 22.5948 84.5111 22.8421 84.2335 23.1548C83.6496 23.8197 83.3425 24.6908 83.3774 25.5832C83.3488 26.4668 83.649 27.3287 84.2175 27.9954C84.4959 28.3072 84.8369 28.554 85.2172 28.7189C85.5975 28.8837 86.0082 28.9628 86.4212 28.9505Z" fill="#1D2130"/>
<path id="Vector_4" d="M106.695 30.133C105.354 31.2562 103.673 31.8701 101.939 31.8701C100.204 31.8701 98.5237 31.2562 97.1829 30.133C96.0327 28.9064 95.3906 27.2739 95.3906 25.5757C95.3906 23.8775 96.0327 22.2449 97.1829 21.0184C98.5249 19.898 100.205 19.2859 101.939 19.2859C103.672 19.2859 105.352 19.898 106.695 21.0184C107.844 22.2421 108.485 23.8721 108.485 25.5676C108.485 27.2631 107.844 28.893 106.695 30.1167V30.133ZM99.6717 27.996C99.9757 28.2912 100.334 28.5219 100.726 28.6748C101.118 28.8276 101.535 28.8996 101.954 28.8864C102.371 28.8974 102.786 28.8245 103.175 28.6717C103.564 28.5188 103.919 28.2892 104.222 27.996C104.774 27.3316 105.078 26.4881 105.078 25.6161C105.078 24.7442 104.774 23.9007 104.222 23.2363C103.919 22.9431 103.564 22.7135 103.175 22.5606C102.786 22.4078 102.371 22.3349 101.954 22.3459C101.535 22.3327 101.118 22.4047 100.726 22.5575C100.334 22.7104 99.9757 22.9411 99.6717 23.2363C99.1189 23.9007 98.8153 24.7442 98.8153 25.6161C98.8153 26.4881 99.1189 27.3316 99.6717 27.996Z" fill="#1D2130"/>
<path id="Vector_5" d="M114.212 16.9391C113.793 17.3137 113.254 17.5202 112.698 17.5202C112.141 17.5202 111.603 17.3137 111.184 16.9391C110.994 16.756 110.842 16.5351 110.739 16.2902C110.635 16.0452 110.582 15.7812 110.582 15.5145C110.582 15.2477 110.635 14.9837 110.739 14.7388C110.842 14.4937 110.994 14.2729 111.184 14.0898C111.607 13.7246 112.143 13.5242 112.698 13.5242C113.252 13.5242 113.788 13.7246 114.212 14.0898C114.402 14.2729 114.553 14.4937 114.656 14.7388C114.76 14.9837 114.813 15.2477 114.813 15.5145C114.813 15.7812 114.76 16.0452 114.656 16.2902C114.553 16.5351 114.402 16.756 114.212 16.9391ZM114.545 31.8656C113.602 31.9128 112.671 31.6395 111.897 31.0884C111.579 30.8407 111.324 30.5189 111.153 30.15C110.982 29.7811 110.9 29.3757 110.914 28.9677V20.1608C110.906 20.0972 110.913 20.0327 110.933 19.9722C110.954 19.9117 110.987 19.8567 111.032 19.8114C111.076 19.7661 111.13 19.7318 111.189 19.7109C111.249 19.6901 111.312 19.6834 111.374 19.6913H114.037C114.338 19.6913 114.481 19.8532 114.481 20.1608V27.8021C114.481 28.4172 114.751 28.7248 115.29 28.7248C115.53 28.7337 115.77 28.7064 116.003 28.6439C116.32 28.6439 116.494 28.7411 116.51 29.0324L116.748 31.0562C116.759 31.1151 116.758 31.1759 116.745 31.2345C116.731 31.2929 116.706 31.3479 116.67 31.3954C116.634 31.443 116.588 31.4821 116.536 31.5101C116.484 31.5382 116.426 31.5545 116.368 31.558C115.779 31.7559 115.164 31.8597 114.545 31.8656Z" fill="#1D2130"/>
<path id="Vector_6" d="M126.544 19.3024C127.377 19.2689 128.206 19.4064 128.985 19.7067C129.765 20.0071 130.476 20.4642 131.079 21.0509C132.2 22.2796 132.823 23.8965 132.823 25.5758C132.823 27.2551 132.2 28.8721 131.079 30.1007C130.479 30.6926 129.769 31.1542 128.989 31.4575C128.21 31.7607 127.378 31.8996 126.544 31.8653C125.358 31.8922 124.194 31.5228 123.231 30.813V36.6573C123.231 36.9649 123.073 37.1107 122.772 37.1107H120.108C120.048 37.1222 119.985 37.1185 119.926 37.0998C119.867 37.0811 119.813 37.0481 119.769 37.0034C119.726 36.9588 119.693 36.904 119.675 36.8436C119.657 36.7833 119.653 36.7193 119.665 36.6573V23.3822C119.683 23.2524 119.672 23.1198 119.631 22.9952C119.591 22.8707 119.523 22.7574 119.432 22.6646C119.341 22.5718 119.23 22.502 119.108 22.4607C118.986 22.4194 118.856 22.408 118.729 22.4269H118.206C117.857 22.4269 117.683 22.2975 117.683 22.0384V20.1281C117.675 20.0099 117.706 19.8923 117.773 19.7952C117.839 19.6979 117.936 19.6269 118.048 19.5939C118.596 19.3903 119.176 19.2916 119.76 19.3024C120.341 19.2499 120.925 19.3758 121.437 19.6642C121.948 19.9527 122.363 20.3904 122.629 20.9214C123.14 20.3939 123.75 19.9783 124.423 19.7C125.097 19.4215 125.819 19.2863 126.544 19.3024ZM124.072 27.9961C124.354 28.2978 124.694 28.5379 125.07 28.7019C125.446 28.8659 125.85 28.9504 126.259 28.9504C126.669 28.9504 127.073 28.8659 127.449 28.7019C127.824 28.5379 128.165 28.2978 128.447 27.9961C129.043 27.3179 129.355 26.4293 129.319 25.5192C129.36 24.6082 129.046 23.7176 128.447 23.0422C128.165 22.7405 127.824 22.5003 127.449 22.3363C127.073 22.1723 126.669 22.0878 126.259 22.0878C125.85 22.0878 125.446 22.1723 125.07 22.3363C124.694 22.5003 124.354 22.7405 124.072 23.0422C123.495 23.7295 123.195 24.6147 123.231 25.5192C123.199 26.4229 123.499 27.3063 124.072 27.9961Z" fill="#1D2130"/>
<path id="Vector_7" d="M140.304 31.8645C138.881 31.9242 137.47 31.5766 136.229 30.8608C135.732 30.5548 135.309 30.1383 134.99 29.6422C134.672 29.1462 134.467 28.5833 134.391 27.9953C134.391 27.6715 134.502 27.5097 134.85 27.5097H137.181C137.292 27.5141 137.4 27.5497 137.492 27.6125C137.585 27.6753 137.657 27.763 137.704 27.8658C138.037 28.74 138.908 29.1771 140.304 29.1771C140.791 29.1999 141.275 29.0997 141.715 28.8857C141.866 28.8157 141.997 28.705 142.092 28.5653C142.186 28.4255 142.243 28.2622 142.254 28.0925C142.254 27.6715 142.001 27.3801 141.493 27.1858C140.892 26.9813 140.269 26.8455 139.638 26.7811C138.891 26.6947 138.15 26.5595 137.419 26.3764C136.708 26.2121 136.062 25.8343 135.564 25.2917C135.271 24.9228 135.055 24.4964 134.929 24.0386C134.804 23.5809 134.772 23.1018 134.837 22.6311C134.901 22.1604 135.059 21.7081 135.301 21.3024C135.544 20.8968 135.865 20.5464 136.246 20.273C137.389 19.5297 138.729 19.1676 140.081 19.2369C141.393 19.1917 142.689 19.5226 143.823 20.1921C144.28 20.4566 144.675 20.8222 144.976 21.2618C145.277 21.7015 145.48 22.2044 145.568 22.7338C145.568 23.0575 145.424 23.2195 145.139 23.2195H142.793C142.694 23.2254 142.596 23.2009 142.511 23.1489C142.426 23.0969 142.359 23.0199 142.317 22.9281C142.16 22.5446 141.865 22.2374 141.493 22.0701C141.072 21.8455 140.604 21.7342 140.129 21.7463C139.664 21.7205 139.201 21.8151 138.782 22.0215C138.635 22.0797 138.508 22.1817 138.417 22.3144C138.327 22.4472 138.277 22.6045 138.275 22.7662C138.285 22.9876 138.365 23.1999 138.501 23.3717C138.638 23.5436 138.825 23.6662 139.035 23.7214C139.644 23.9556 140.277 24.1186 140.922 24.2071C141.664 24.3067 142.399 24.4472 143.126 24.628C143.837 24.7921 144.482 25.1699 144.981 25.7126C145.247 26.0116 145.453 26.3615 145.586 26.7422C145.72 27.1228 145.777 27.5268 145.757 27.9306C145.771 28.4902 145.643 29.0439 145.384 29.5375C145.125 30.0313 144.746 30.4481 144.283 30.7475C143.098 31.524 141.71 31.9137 140.304 31.8645Z" fill="#1D2130"/>
<path id="Vector_8" d="M162.515 31.0561C162.523 31.1135 162.521 31.1723 162.508 31.2288C162.495 31.2854 162.469 31.3385 162.435 31.3854C162.402 31.4321 162.359 31.4714 162.31 31.5011C162.261 31.5306 162.207 31.55 162.15 31.5579C161.571 31.7509 160.967 31.8545 160.359 31.8655C159.757 31.9292 159.147 31.8331 158.592 31.5863C158.037 31.3395 157.554 30.9506 157.188 30.4571C156.069 31.4402 154.621 31.9447 153.146 31.8655C152.461 31.8977 151.777 31.7833 151.138 31.5296C150.5 31.2758 149.92 30.8884 149.436 30.3923C148.956 29.8723 148.583 29.2589 148.341 28.5884C148.099 27.918 147.992 27.2045 148.026 26.4906V20.1607C148.026 19.8531 148.168 19.6912 148.469 19.6912H151.133C151.433 19.6912 151.576 19.8531 151.576 20.1607V26.005C151.547 26.7331 151.791 27.4452 152.258 27.9963C152.491 28.2487 152.775 28.4473 153.089 28.5785C153.404 28.7097 153.742 28.7706 154.081 28.7572C154.429 28.7727 154.775 28.7177 155.102 28.5955C155.428 28.4732 155.729 28.2861 155.984 28.0448C156.225 27.7906 156.413 27.4885 156.536 27.1571C156.658 26.8257 156.713 26.4722 156.697 26.1184V20.1607C156.697 19.8531 156.839 19.6912 157.14 19.6912H159.836C160.137 19.6912 160.279 19.8531 160.279 20.1607V27.7859C160.279 28.4172 160.549 28.7248 161.073 28.7248C161.318 28.7345 161.564 28.7073 161.801 28.6438C161.862 28.6266 161.924 28.6237 161.986 28.6349C162.047 28.6461 162.105 28.6713 162.155 28.7087C162.206 28.7461 162.247 28.7946 162.276 28.8508C162.306 28.9068 162.322 28.9688 162.325 29.0325L162.515 31.0561Z" fill="#1D2130"/>
<path id="Vector_9" d="M187.705 31.0564C187.719 31.1144 187.72 31.1749 187.709 31.2335C187.697 31.292 187.673 31.3473 187.638 31.3953C187.603 31.4433 187.559 31.4828 187.508 31.5109C187.456 31.5391 187.398 31.5553 187.341 31.5584C186.751 31.754 186.136 31.8577 185.517 31.8659C184.575 31.9155 183.643 31.6421 182.869 31.0888C182.535 30.8518 182.264 30.5342 182.078 30.1643C181.893 29.7944 181.8 29.3835 181.808 28.9681V25.1635C181.841 24.4376 181.603 23.7259 181.141 23.1723C180.919 22.9193 180.645 22.7198 180.337 22.5882C180.031 22.4566 179.699 22.3963 179.366 22.4114C179.066 22.3998 178.767 22.458 178.493 22.5813C178.218 22.7047 177.975 22.8902 177.781 23.1238C177.362 23.6662 177.148 24.3442 177.178 25.0341V31.0079C177.178 31.3155 177.035 31.4773 176.735 31.4773H174.055C173.993 31.4852 173.93 31.4785 173.87 31.4577C173.811 31.437 173.757 31.4025 173.713 31.3573C173.669 31.312 173.635 31.257 173.615 31.1964C173.594 31.1359 173.588 31.0714 173.595 31.0079V25.1635C173.63 24.4456 173.41 23.7388 172.977 23.1723C172.784 22.9344 172.541 22.7428 172.268 22.6113C171.994 22.4798 171.695 22.4115 171.392 22.4114C171.068 22.3981 170.747 22.4546 170.445 22.5773C170.145 22.7002 169.874 22.8864 169.649 23.1238C169.195 23.649 168.962 24.3349 168.998 25.0341V31.0079C169.006 31.0714 168.999 31.1359 168.979 31.1964C168.958 31.257 168.925 31.312 168.88 31.3573C168.836 31.4025 168.782 31.437 168.723 31.4577C168.664 31.4785 168.601 31.4852 168.539 31.4773H165.955C165.654 31.4773 165.51 31.3155 165.51 31.0079V23.3828C165.529 23.253 165.518 23.1204 165.478 22.9958C165.438 22.8713 165.368 22.758 165.278 22.6652C165.188 22.5724 165.076 22.5026 164.954 22.4613C164.832 22.4201 164.703 22.4086 164.576 22.4277H164.052C163.703 22.4277 163.528 22.2981 163.528 22.039V20.1287C163.521 20.0105 163.552 19.893 163.619 19.7958C163.685 19.6986 163.782 19.6275 163.894 19.5945C164.442 19.3909 165.022 19.2922 165.606 19.303C166.166 19.2544 166.727 19.3683 167.227 19.6319C167.726 19.8954 168.143 20.2977 168.428 20.7924C168.962 20.2748 169.596 19.8754 170.289 19.6192C170.981 19.3629 171.719 19.2553 172.455 19.303C173.168 19.2675 173.881 19.4043 174.533 19.7025C175.186 20.0006 175.762 20.4517 176.211 21.0191C176.736 20.4368 177.381 19.9808 178.099 19.6841C178.817 19.3873 179.591 19.2571 180.365 19.303C181.057 19.27 181.748 19.3839 182.394 19.6375C183.041 19.891 183.629 20.2788 184.121 20.7763C184.604 21.2951 184.977 21.9084 185.219 22.5791C185.462 23.2499 185.568 23.9639 185.533 24.6779V27.8024C185.533 28.4176 185.802 28.7252 186.309 28.7252C186.556 28.737 186.802 28.7096 187.039 28.6443C187.367 28.6443 187.54 28.7737 187.562 29.0328L187.705 31.0564Z" fill="#1D2130"/>
<path id="Vector_10" d="M1.81403 17.5872C2.9836 12.7866 5.69231 8.52353 9.50884 5.47688C13.3253 2.43024 18.0303 0.775146 22.8745 0.775146C27.7187 0.775146 32.4236 2.43024 36.2401 5.47688C40.0567 8.52353 42.7655 12.7866 43.935 17.5872H42.0327C38.8236 17.5389 35.6802 18.5184 33.0441 20.3879C32.892 20.5005 32.7331 20.6032 32.5685 20.6956H32.3466C32.182 20.6032 32.0231 20.5005 31.871 20.3879C29.2116 18.5616 26.0794 17.5863 22.8745 17.5863C19.6696 17.5863 16.5375 18.5616 13.8781 20.3879C13.7258 20.5005 13.5671 20.6032 13.4024 20.6956H13.1805C13.0159 20.6032 12.8571 20.5005 12.7049 20.3879C10.0688 18.5184 6.92549 17.5389 3.71636 17.5872H1.81403ZM38.6084 27.7379C39.5849 26.9612 40.7953 26.5549 42.0327 26.5885H44.585V21.3917H42.0327C39.8532 21.3647 37.7237 22.0575 35.9611 23.3668C34.9691 24.1136 33.7691 24.5165 32.5368 24.5165C31.3045 24.5165 30.1046 24.1136 29.1126 23.3668C27.3052 22.082 25.1559 21.3932 22.9538 21.3932C20.7517 21.3932 18.6023 22.082 16.795 23.3668C15.803 24.1136 14.603 24.5165 13.3708 24.5165C12.1384 24.5165 10.9384 24.1136 9.94653 23.3668C8.16214 22.0407 6.00202 21.3472 3.79563 21.3917H1.16406V26.5885H3.71636C4.95369 26.5549 6.16403 26.9612 7.14058 27.7379C8.94464 29.0236 11.0916 29.7128 13.2915 29.7128C15.4914 29.7128 17.6383 29.0236 19.4424 27.7379C20.4202 26.9636 21.6296 26.5576 22.8666 26.5885C24.1043 26.5522 25.3155 26.9588 26.2908 27.7379C28.0981 29.0226 30.2475 29.7114 32.4496 29.7114C34.6517 29.7114 36.8011 29.0226 38.6084 27.7379ZM38.6084 37.0305C39.5849 36.2539 40.7953 35.8475 42.0327 35.8811H44.585V30.6843H42.0327C39.8532 30.6574 37.7237 31.3501 35.9611 32.6594C34.9691 33.4063 33.7691 33.8091 32.5368 33.8091C31.3045 33.8091 30.1046 33.4063 29.1126 32.6594C27.3052 31.3745 25.1559 30.6859 22.9538 30.6859C20.7517 30.6859 18.6023 31.3745 16.795 32.6594C15.803 33.4063 14.603 33.8091 13.3708 33.8091C12.1384 33.8091 10.9384 33.4063 9.94653 32.6594C8.16214 31.3334 6.00202 30.6398 3.79563 30.6843H1.16406V35.8811H3.71636C4.95369 35.8475 6.16403 36.2539 7.14058 37.0305C8.94464 38.3162 11.0916 39.0055 13.2915 39.0055C15.4914 39.0055 17.6383 38.3162 19.4424 37.0305C20.4202 36.2562 21.6296 35.8503 22.8666 35.8811C24.1043 35.8448 25.3155 36.2514 26.2908 37.0305C28.0981 38.3153 30.2475 39.0041 32.4496 39.0041C34.6517 39.0041 36.8011 38.3153 38.6084 37.0305Z" fill="#1D2130"/>
</g>
<defs>
<clipPath id="clip0_13_255">
<rect width="187.141" height="40" fill="white" transform="translate(0.746094)"/>
</clipPath>
</defs>
</svg>
