<svg width="72" height="72" viewBox="0 0 72 72" fill="none" xmlns="http://www.w3.org/2000/svg">
<g id="Feature Icon with circle">
<rect width="72" height="72" rx="36" fill="#F4F5F7"/>
<g id="Icon">
<path id="Vector" fill-rule="evenodd" clip-rule="evenodd" d="M33.5065 35.4339C30.716 34.2933 28.751 31.5521 28.751 28.35C28.751 24.1233 32.1744 20.7 36.401 20.7C40.6276 20.7 44.051 24.1233 44.051 28.35C44.051 31.5522 42.0859 34.2934 39.2953 35.434C41.981 36.0653 44.3354 37.5559 46.0525 39.5999H41.722L41.5732 39.604C40.1947 39.6801 39.1006 40.808 39.1006 42.1883V47.6999H23.8008C23.8008 41.7371 27.9428 36.7417 33.5065 35.4339ZM40.4429 30.1973C39.9768 32.0214 38.3112 33.3 36.4012 33.3C34.4911 33.3 32.8255 32.0214 32.3594 30.1973L34.3797 29.7C34.6105 30.6145 35.4443 31.2565 36.4012 31.2565C37.3581 31.2565 38.1919 30.6145 38.4226 29.7L40.4429 30.1973Z" fill="#1D2130"/>
<path id="Vector_2" fill-rule="evenodd" clip-rule="evenodd" d="M40.9004 42.9144C40.9004 42.0779 41.5784 41.3999 42.4148 41.3999H53.7859C54.6223 41.3999 55.3004 42.0779 55.3004 42.9144V49.1115C55.3004 49.9479 54.6223 50.6259 53.7859 50.6259H42.4148C41.5784 50.6259 40.9004 49.9479 40.9004 49.1115V42.9144ZM45.1924 50.626H51.0078C50.6342 50.626 49.7209 51.2426 49.0167 51.7629C48.484 52.1565 47.741 52.1269 47.2227 51.7145C46.5826 51.2051 45.7354 50.626 45.1924 50.626ZM44.7085 46.9355C45.2438 46.9355 45.6777 46.5225 45.6777 46.0129C45.6777 45.5034 45.2438 45.0903 44.7085 45.0903C44.1732 45.0903 43.7393 45.5034 43.7393 46.0129C43.7393 46.5225 44.1732 46.9355 44.7085 46.9355ZM48.1011 46.9355C48.6364 46.9355 49.0703 46.5225 49.0703 46.0129C49.0703 45.5034 48.6364 45.0903 48.1011 45.0903C47.5658 45.0903 47.1318 45.5034 47.1318 46.0129C47.1318 46.5225 47.5658 46.9355 48.1011 46.9355ZM52.4619 46.0129C52.4619 46.5225 52.028 46.9355 51.4927 46.9355C50.9574 46.9355 50.5234 46.5225 50.5234 46.0129C50.5234 45.5034 50.9574 45.0903 51.4927 45.0903C52.028 45.0903 52.4619 45.5034 52.4619 46.0129Z" fill="url(#paint0_radial_13_220)"/>
</g>
</g>
<defs>
<radialGradient id="paint0_radial_13_220" cx="0" cy="0" r="1" gradientUnits="userSpaceOnUse" gradientTransform="translate(33.772 14.7956) rotate(56.7643) scale(61.5658 216.908)">
<stop offset="0.175497" stop-color="#D798E1"/>
<stop offset="0.275566" stop-color="#9B9FFF"/>
<stop offset="0.49892" stop-color="#AED3FF"/>
<stop offset="0.565292" stop-color="#C9D4EF"/>
<stop offset="0.656871" stop-color="#CACFFA"/>
</radialGradient>
</defs>
</svg>
