<svg width="48" height="48" viewBox="0 0 48 48" fill="none" xmlns="http://www.w3.org/2000/svg">
<g id="Icon 2" clip-path="url(#clip0_13_339)">
<path id="Vector" d="M1 22.9247H9.43254V46.5358H1V22.9247Z" fill="#6B7CFF"/>
<path id="Vector_2" d="M36.4158 46.5357H12.8047V21.5703L17.935 13.8748L19.3601 3.89573C19.4784 3.09343 19.8803 2.36009 20.4929 1.82879C21.1056 1.29749 21.8885 1.00344 22.6994 1H22.9237C24.2652 1.00134 25.5513 1.53483 26.4999 2.48338C27.4484 3.43193 27.9819 4.71807 27.9833 6.05952V16.1786H41.4753C43.2638 16.1808 44.9784 16.8923 46.243 18.1569C47.5077 19.4215 48.2191 21.1361 48.2214 22.9246V34.7302C48.2178 37.8601 46.9728 40.8608 44.7596 43.074C42.5464 45.2872 39.5457 46.5321 36.4158 46.5357Z" fill="#6B7CFF"/>
</g>
<defs>
<clipPath id="clip0_13_339">
<rect width="48" height="48" fill="white"/>
</clipPath>
</defs>
</svg>
