<svg width="166" height="40" viewBox="0 0 166 40" fill="none" xmlns="http://www.w3.org/2000/svg">
<g id="Logo 2" clip-path="url(#clip0_13_269)">
<path id="Vector" d="M40.1348 9.75708H43.9354V28.7094H40.1348V9.75708Z" fill="#1D2130"/>
<path id="Vector_2" d="M46.0631 22.2177C46.0631 20.8541 46.4542 19.5213 47.1866 18.3881C47.9192 17.255 48.9602 16.3724 50.1778 15.8524C51.3953 15.3324 52.7345 15.1983 54.0258 15.4673C55.3169 15.7362 56.502 16.3959 57.4306 17.3629C58.3593 18.3297 58.9897 19.5604 59.242 20.8987C59.4944 22.237 59.3572 23.6227 58.848 24.8802C58.3387 26.1377 57.4803 27.2103 56.3816 27.9622C55.2828 28.7141 53.9932 29.1114 52.6761 29.1036C51.8026 29.1107 50.9365 28.937 50.1286 28.593C49.3207 28.249 48.5872 27.7414 47.9712 27.1001C47.3554 26.4588 46.8693 25.6965 46.5416 24.8581C46.214 24.0198 46.0512 23.122 46.0631 22.2177ZM55.59 22.2177C55.575 21.6299 55.393 21.0597 55.0667 20.5783C54.7403 20.097 54.2842 19.726 53.7552 19.5117C53.2262 19.2974 52.6481 19.2493 52.0928 19.3734C51.5376 19.4975 51.0301 19.7884 50.6337 20.2095C50.2373 20.6308 49.9696 21.1636 49.8642 21.7414C49.7588 22.3192 49.8203 22.9164 50.0409 23.4582C50.2616 24.0001 50.6317 24.4626 51.1049 24.7878C51.5781 25.1131 52.1334 25.2867 52.7015 25.2869C53.0882 25.2947 53.4723 25.2198 53.8298 25.067C54.1873 24.914 54.5106 24.6865 54.7793 24.3984C55.048 24.1104 55.2564 23.7681 55.3915 23.3929C55.5267 23.0176 55.5856 22.6176 55.5646 22.2177H55.59Z" fill="#1D2130"/>
<path id="Vector_3" d="M74.3268 15.7259V28.0679C74.3268 32.4223 71.0329 34.2716 67.701 34.2716C66.5258 34.3715 65.3471 34.1298 64.2973 33.5737C63.2475 33.0175 62.3687 32.1691 61.7594 31.1239L64.9646 29.209C65.2244 29.7511 65.6375 30.1984 66.149 30.4913C66.6606 30.7843 67.2461 30.9088 67.8277 30.8485C68.1982 30.8956 68.5743 30.8576 68.9289 30.7369C69.2836 30.6162 69.6081 30.4159 69.8792 30.1501C70.1504 29.8845 70.3614 29.5601 70.4974 29.2001C70.6333 28.8401 70.6908 28.4535 70.6655 28.0679V26.8743C70.2233 27.4295 69.6621 27.8703 69.0265 28.1617C68.391 28.4531 67.6986 28.5871 67.0043 28.5532C65.3243 28.5532 63.7132 27.8622 62.5252 26.6324C61.3373 25.4025 60.6699 23.7345 60.6699 21.9952C60.6699 20.256 61.3373 18.588 62.5252 17.3581C63.7132 16.1283 65.3243 15.4373 67.0043 15.4373C67.6986 15.4033 68.391 15.5374 69.0265 15.8288C69.6621 16.1202 70.2233 16.561 70.6655 17.1162V15.8046L74.3268 15.7259ZM70.6655 21.9558C70.6908 21.3284 70.5342 20.7074 70.2159 20.1728C69.8975 19.6382 69.432 19.2144 68.8791 18.9558C68.3262 18.6974 67.7112 18.6161 67.1133 18.7223C66.5155 18.8286 65.9619 19.1175 65.524 19.5521C65.086 19.9866 64.7836 20.5468 64.6556 21.1608C64.5276 21.7747 64.58 22.4142 64.806 22.9971C65.0319 23.58 65.421 24.0795 65.9234 24.4315C66.4258 24.7835 67.0184 24.972 67.6251 24.9726C68.0209 25.002 68.4184 24.9453 68.7916 24.8059C69.165 24.6665 69.5059 24.4476 69.7925 24.1633C70.079 23.879 70.3047 23.5357 70.4552 23.1554C70.6055 22.7752 70.6772 22.3666 70.6655 21.9558Z" fill="#1D2130"/>
<path id="Vector_4" d="M76.4692 22.2178C76.4692 20.8554 76.8595 19.5236 77.5909 18.391C78.3223 17.2582 79.3619 16.3757 80.5779 15.855C81.794 15.3341 83.1319 15.1985 84.4225 15.4653C85.713 15.7321 86.8981 16.3892 87.8277 17.3535C88.7574 18.3178 89.3898 19.5459 89.645 20.8825C89.9003 22.2192 89.7667 23.604 89.2614 24.862C88.756 26.12 87.9016 27.1945 86.8061 27.9495C85.7108 28.7046 84.4236 29.1062 83.1076 29.1037C82.2323 29.1124 81.3643 28.9402 80.5542 28.5971C79.7442 28.254 79.0084 27.747 78.3901 27.1056C77.7717 26.4643 77.2833 25.7016 76.9535 24.8622C76.6236 24.023 76.459 23.1239 76.4692 22.2178ZM85.9961 22.2178C85.9811 21.6294 85.7987 21.0586 85.4719 20.5771C85.1449 20.0956 84.6879 19.7245 84.1583 19.5106C83.6286 19.2967 83.0498 19.2494 82.4943 19.3745C81.9387 19.4998 81.4313 19.7919 81.0353 20.2143C80.6395 20.6368 80.3728 21.1709 80.2689 21.7495C80.1649 22.3282 80.2282 22.9258 80.4507 23.4675C80.6733 24.009 81.0454 24.4706 81.5202 24.7942C81.9951 25.1179 82.5517 25.2893 83.1203 25.287C83.507 25.2948 83.8911 25.2199 84.2486 25.0671C84.6061 24.9141 84.9294 24.6866 85.198 24.3985C85.4668 24.1105 85.6752 23.7682 85.8103 23.393C85.9455 23.0177 86.0044 22.6177 85.9834 22.2178H85.9961Z" fill="#1D2130"/>
<path id="Vector_5" d="M91.5059 12.2491C91.5059 11.7874 91.6381 11.3361 91.8859 10.9521C92.1337 10.5682 92.4859 10.2689 92.8979 10.0923C93.31 9.91556 93.7634 9.86933 94.2008 9.95941C94.6383 10.0495 95.0401 10.2719 95.3555 10.5984C95.6708 10.9248 95.8856 11.3408 95.9726 11.7937C96.0596 12.2466 96.015 12.716 95.8443 13.1426C95.6735 13.5692 95.3845 13.9338 95.0137 14.1904C94.6429 14.4469 94.2069 14.5838 93.7609 14.5838C93.1649 14.577 92.5952 14.3288 92.1737 13.8924C91.7521 13.4561 91.5124 12.8663 91.5059 12.2491ZM91.8733 15.7249H95.6738V28.7095H91.8733V15.7249Z" fill="#1D2130"/>
<path id="Vector_6" d="M111.941 22.2173C111.984 23.0808 111.861 23.9446 111.58 24.7588C111.299 25.573 110.865 26.3218 110.303 26.9617C109.742 27.6017 109.063 28.1203 108.307 28.4878C107.551 28.8554 106.733 29.0644 105.898 29.1031C105.19 29.1519 104.481 29.0345 103.823 28.7597C103.165 28.4848 102.575 28.0598 102.097 27.5161V33.9298H98.2969V15.7249H102.097V16.9447C102.576 16.4027 103.166 15.9795 103.824 15.7069C104.481 15.4344 105.191 15.3195 105.898 15.3708C106.729 15.4096 107.544 15.6174 108.298 15.9825C109.052 16.3475 109.728 16.8626 110.289 17.4984C110.85 18.1341 111.285 18.8781 111.569 19.6877C111.852 20.4975 111.978 21.3569 111.941 22.2173ZM108.14 22.2173C108.125 21.6081 107.937 21.017 107.599 20.5183C107.261 20.0194 106.789 19.635 106.241 19.4131C105.691 19.1913 105.092 19.1419 104.517 19.2711C103.942 19.4003 103.416 19.7025 103.007 20.1396C102.597 20.5768 102.32 21.1296 102.212 21.7285C102.104 22.3276 102.169 22.9463 102.4 23.5071C102.631 24.0678 103.015 24.5458 103.507 24.881C103.998 25.2162 104.574 25.3937 105.163 25.3913C105.567 25.409 105.969 25.3383 106.343 25.1838C106.719 25.0294 107.057 24.7945 107.339 24.4948C107.62 24.1951 107.837 23.8372 107.975 23.4447C108.112 23.0523 108.169 22.634 108.14 22.2173Z" fill="#1D2130"/>
<path id="Vector_7" d="M123.507 24.8141C123.507 27.8045 120.973 29.0767 118.288 29.0767C117.192 29.1788 116.092 28.9384 115.13 28.3866C114.169 27.8348 113.388 26.997 112.891 25.9813L116.159 24.0665C116.289 24.5345 116.57 24.9423 116.955 25.2216C117.34 25.5009 117.805 25.6349 118.275 25.601C119.174 25.601 119.63 25.3125 119.63 24.7878C119.63 23.3583 113.461 24.119 113.461 19.6202C113.461 16.7872 115.767 15.3707 118.377 15.3707C119.369 15.3247 120.354 15.5577 121.229 16.0449C122.102 16.5322 122.833 17.2555 123.342 18.1382L120.074 19.9219C119.93 19.5835 119.693 19.2957 119.395 19.0931C119.095 18.8907 118.746 18.7822 118.389 18.7808C117.731 18.7808 117.337 19.0431 117.337 19.5022C117.337 20.9973 123.507 20.0137 123.507 24.8141Z" fill="#1D2130"/>
<path id="Vector_8" d="M137.277 15.7251V28.7098H133.476V27.49C133.044 28.0299 132.496 28.4573 131.875 28.7375C131.255 29.0177 130.579 29.1431 129.903 29.1033C127.37 29.1033 125.203 27.2278 125.203 23.7258V15.7251H129.004V23.1356C128.974 23.4454 129.01 23.7582 129.108 24.0525C129.206 24.3467 129.365 24.6154 129.573 24.8398C129.782 25.0643 130.035 25.2393 130.315 25.3526C130.595 25.466 130.896 25.515 131.195 25.4964C132.564 25.4964 133.526 24.657 133.526 22.8733V15.7251H137.277Z" fill="#1D2130"/>
<path id="Vector_9" d="M158.814 20.7354V28.7099H155.014V21.0764C155.014 19.7648 154.418 18.9517 153.215 18.9517C152.011 18.9517 151.251 19.8566 151.251 21.3912V28.7099H147.45V21.0764C147.45 19.7648 146.855 18.9517 145.651 18.9517C144.448 18.9517 143.687 19.8566 143.687 21.3912V28.7099H139.887V15.7252H143.687V16.9187C144.081 16.3914 144.595 15.9739 145.184 15.7036C145.772 15.4335 146.416 15.3191 147.058 15.371C147.7 15.3363 148.341 15.4753 148.916 15.7742C149.491 16.0732 149.982 16.5218 150.338 17.0761C150.756 16.497 151.309 16.0368 151.945 15.7386C152.581 15.4404 153.278 15.314 153.974 15.371C156.939 15.371 158.814 17.4958 158.814 20.7354Z" fill="#1D2130"/>
<path id="Vector_10" d="M17.4956 6.34693V0.772705H0.519531V39.071H17.4956V33.4967C14.0181 33.4967 10.6829 32.0665 8.22394 29.5207C5.76495 26.975 4.38349 23.5221 4.38349 19.9218C4.38349 16.3215 5.76495 12.8687 8.22394 10.323C10.6829 7.77714 14.0181 6.34693 17.4956 6.34693Z" fill="#1D2130"/>
<path id="Vector_11" d="M17.4961 6.34766V33.4974C20.9736 33.4974 24.3088 32.0673 26.7678 29.5214C29.2268 26.9757 30.6082 23.5229 30.6082 19.9225C30.6082 16.3222 29.2268 12.8694 26.7678 10.3237C24.3088 7.77786 20.9736 6.34766 17.4961 6.34766Z" fill="#1D2130"/>
<path id="Vector_12" d="M162.006 15.6465C163.546 15.6465 164.793 14.3546 164.793 12.761C164.793 11.1674 163.546 9.87549 162.006 9.87549C160.467 9.87549 159.219 11.1674 159.219 12.761C159.219 14.3546 160.467 15.6465 162.006 15.6465Z" fill="#1D2130"/>
</g>
<defs>
<clipPath id="clip0_13_269">
<rect width="165.725" height="40" fill="white" transform="translate(0.00390625)"/>
</clipPath>
</defs>
</svg>
