<svg width="130" height="27" viewBox="0 0 130 27" fill="none" xmlns="http://www.w3.org/2000/svg">
<g id="Logo" clip-path="url(#clip0_1774_29)">
<path id="t" d="M129.769 20.1089V23.326H127.07C124.19 23.2355 122.652 21.6804 122.652 18.7595V11.4121H120.768V8.58991H122.652V5.43042H126.634V8.557H129.678V11.3709H126.634V18.3646C126.634 19.3108 126.823 20.0678 128.28 20.0678L129.769 20.1089Z" fill="white"/>
<path id="e" d="M104.896 15.9866V15.7727C104.853 14.8264 104.997 13.8809 105.32 12.9903C105.643 12.0998 106.139 11.2818 106.779 10.5832C107.418 9.88455 108.19 9.31906 109.048 8.91911C109.907 8.51915 110.836 8.2926 111.783 8.25244C111.972 8.25244 112.17 8.25244 112.359 8.25244C116.119 8.25244 119.418 10.441 119.418 15.6575V16.7683H108.969C109.076 19.1708 110.376 20.5284 112.564 20.5284C114.449 20.5284 115.329 19.7056 115.584 18.5043H119.344C118.883 21.6391 116.382 23.3835 112.425 23.3835C108.08 23.3505 104.896 20.6024 104.896 15.9866ZM115.502 14.2505C115.362 12.0619 114.259 11.0088 112.342 11.0088C110.425 11.0088 109.323 12.1936 109.051 14.2505H115.502Z" fill="white"/>
<path id="e_2" d="M88.6383 15.9866V15.7727C88.5952 14.8277 88.7388 13.8835 89.0608 12.994C89.3828 12.1045 89.8769 11.2872 90.515 10.5888C91.153 9.89038 91.9225 9.32457 92.7793 8.92368C93.6361 8.5228 94.5636 8.2947 95.5086 8.25244C95.6978 8.25244 95.8953 8.25244 96.0845 8.25244C99.8447 8.25244 103.152 10.441 103.152 15.6575V16.7683H92.7111C92.8181 19.1708 94.1181 20.5284 96.3067 20.5284C98.1909 20.5284 99.0712 19.7056 99.3263 18.5043H103.086C102.617 21.6391 100.116 23.3835 96.1586 23.3835C91.8225 23.3505 88.6383 20.6024 88.6383 15.9866ZM99.244 14.2505C99.1042 12.0619 98.0016 11.0088 96.0845 11.0088C94.1674 11.0088 93.0978 12.2265 92.7934 14.2423L99.244 14.2505Z" fill="white"/>
<path id="w" d="M65.8223 8.55688H70.0349L72.6102 18.3151L75.4324 8.55688H78.7235L81.2742 18.3151L83.9894 8.55688H87.8482L83.2735 23.0544H79.3242L76.8558 13.9544L74.2147 23.0544H70.2159L65.8223 8.55688Z" fill="white"/>
<path id="s" d="M52.4355 18.4963H56.1957C56.3685 19.8045 57.0185 20.5533 58.7463 20.5533C60.2931 20.5533 61.009 19.9691 61.009 18.9735C61.009 17.978 60.1862 17.5583 58.0799 17.2621C54.221 16.678 52.7318 15.5672 52.7318 12.7368C52.7318 9.71719 55.4963 8.21973 58.4912 8.21973C61.7083 8.21973 64.1356 9.38808 64.4811 12.7204H60.7704C60.7467 12.4627 60.6722 12.2124 60.5512 11.9837C60.4302 11.7551 60.2651 11.5527 60.0654 11.3882C59.8657 11.2237 59.6355 11.1004 59.3879 11.0254C59.1403 10.9505 58.8803 10.9253 58.6229 10.9514H58.4995C57.1995 10.9514 56.4425 11.5602 56.4425 12.4488C56.4425 13.3374 57.1419 13.7242 59.2647 14.0286C62.8685 14.5716 64.8843 15.4849 64.8843 18.5868C64.8843 21.6887 62.6052 23.3507 58.7874 23.3507C54.9697 23.3507 52.5425 21.6311 52.4355 18.4963Z" fill="white"/>
<path id="n" d="M36.457 8.55692H40.4393V10.8525C40.8882 10.0099 41.5695 9.3139 42.4023 8.84717C43.2351 8.38044 44.1844 8.16262 45.1374 8.21958C47.9596 8.21958 50.0083 9.9392 50.0083 13.8639V23.0873H46.0754V14.4398C46.0754 12.4734 45.3102 11.5354 43.533 11.5354C43.1573 11.5027 42.779 11.5445 42.4195 11.6584C42.0601 11.7723 41.7267 11.9561 41.4385 12.1992C41.1503 12.4424 40.9129 12.74 40.74 13.0751C40.5672 13.4102 40.4622 13.7761 40.4311 14.1519C40.4105 14.3268 40.4105 14.5035 40.4311 14.6784V23.0544H36.457V8.55692Z" fill="white"/>
<path id="i" d="M28.7728 4.91207C28.7584 4.51502 28.8621 4.12261 29.0708 3.78454C29.2795 3.44646 29.5838 3.17791 29.9453 3.01289C30.3067 2.84788 30.7089 2.79381 31.1011 2.85754C31.4933 2.92127 31.8577 3.09993 32.1483 3.3709C32.4388 3.64186 32.6425 3.99296 32.7334 4.37973C32.8243 4.76649 32.7984 5.17154 32.659 5.54359C32.5196 5.91564 32.2729 6.23796 31.9502 6.46973C31.6275 6.70151 31.2433 6.83232 30.8462 6.84561H30.7722C30.5257 6.86121 30.2786 6.828 30.045 6.74787C29.8114 6.66775 29.596 6.5423 29.411 6.37871C29.226 6.21512 29.0751 6.01662 28.967 5.79458C28.8589 5.57255 28.7957 5.33136 28.781 5.08485C28.7742 5.02752 28.7715 4.96978 28.7728 4.91207ZM28.7728 8.557H32.7962V23.0545H28.7893L28.7728 8.557Z" fill="white"/>
<path id="F" d="M13.6094 3.2417H26.3296V6.75499H18.1018V11.9961H24.6182V15.3778H18.0936V23.0544H13.6094V3.2417Z" fill="white"/>
<path id="{" d="M5.93228 9.72532C5.93228 10.9677 5.93228 12.4816 4.22089 13.0987C5.97342 13.6994 5.93228 14.9747 5.93228 16.3076V21.2443C5.93228 22.1823 6.31076 22.75 6.98544 22.8899C7.13369 22.9399 7.28988 22.9622 7.4462 22.9557H9.09177V26.2468H6.37658C3.48038 26.2468 1.88418 24.6013 1.88418 21.5487V15.707C1.86364 15.4071 1.7314 15.1257 1.51357 14.9186C1.29574 14.7114 1.00816 14.5934 0.707595 14.588H0V11.7H0.707595C1.01415 11.696 1.30739 11.574 1.52646 11.3596C1.74553 11.1451 1.87363 10.8545 1.88418 10.5481V4.62405C1.88418 1.62089 3.44747 0 6.37658 0H9.11646V3.24177H7.47089C7.31437 3.24222 7.1589 3.26721 7.01013 3.31582C6.33544 3.48861 5.95696 4.0481 5.95696 4.96139L5.93228 9.72532Z" fill="white"/>
</g>
<defs>
<clipPath id="clip0_1774_29">
<rect width="130" height="26.3291" fill="white"/>
</clipPath>
</defs>
</svg>
